<?xml version="1.0" encoding="UTF-8"?>
<!-- Generated by jsxcad -->
<!DOCTYPE svg PUBLIC "-//W3C//DTD SVG 1.1 Tiny//EN" "http://www.w3.org/Graphics/SVG/1.1/DTD/svg11-tiny.dtd">
<svg viewBox="-250 -250 500 500" width="500" height="500" xmlns="http://www.w3.org/2000/svg"><path d="M13.541667709755497,135.63410366195038L-94.26902049535241,-49.12555437293659L8.986078745845624,129.53781306996396z" style="fill:rgb(21,57,142)"/><path d="M15.688812727697666,-102.81665833963424L102.80495875086747,92.63890822995347L101.15059801015975,85.1238826213286z" style="fill:rgb(246,167,149)"/><path d="M19.720015427813166,140.57779812347616L-89.70142091143767,-43.36143291918376L13.541667709755497,135.63410366195038z" style="fill:rgb(34,46,160)"/><path d="M102.80495875086747,92.63890822995347L15.949134561464643,-87.24760341617784L102.5495153887714,100.69984116457053z" style="fill:rgb(246,149,167)"/><path d="M27.305236231107987,144.1460432860803L-83.14193086081711,-38.90598907628641L19.720015427813166,140.57779812347616z" style="fill:rgb(51,38,177)"/><path d="M102.5495153887714,100.69984116457053L12.69134541533429,-78.64241871461505L100.3566141850589,108.99042881086336z" style="fill:rgb(242,130,183)"/><path d="M-65.00794432047152,-34.717569413430795L27.305236231107987,144.1460432860803L36.01228555883289,146.16670420751825z" style="fill:rgb(71,33,192)"/><path d="M100.3566141850589,108.99042881086336L7.258389045294591,-69.94639933748597L96.28219289636877,117.17253885087239z" style="fill:rgb(233,112,197)"/><path d="M-54.12645464619431,-35.22636520765328L36.01228555883289,146.16670420751825L45.49641008444937,146.5306190001755z" style="fill:rgb(92,32,204)"/><path d="M96.28219289636877,117.17253885087239L-0.1578721431264632,-61.528064248902915L90.46852004885834,124.9019787472082z" style="fill:rgb(220,94,208)"/><path d="M-42.614583875824174,-37.504657081312864L45.49641008444937,146.5306190001755L55.36760958443449,145.20104109332536z" style="fill:rgb(115,34,214)"/><path d="M90.46852004885834,124.9019787472082L-9.265458253154758,-53.75431844710515L83.14141024225724,131.8463032439231z" style="fill:rgb(203,77,216)"/><path d="M-9.265458253154758,-53.75431844710515L74.60145671510435,137.70340288909006L83.14141024225724,131.8463032439231z" style="fill:rgb(183,62,221)"/><path d="M-30.96471985885351,-41.47319181186886L55.36760958443449,145.20104109332536L65.2095405022249,142.21894582424125z" style="fill:rgb(139,40,220)"/><path d="M-19.684121842587633,-46.96922749874532L65.2095405022249,142.21894582424125L74.60145671510435,137.70340288909006z" style="fill:rgb(162,50,222)"/><path d="M-94.26902049535241,-49.12555437293659L13.541667709755497,135.63410366195038L-89.70142091143767,-43.36143291918376z" style="fill:rgb(21,57,142)"/><path d="M102.80495875086747,92.63890822995347L15.688812727697666,-102.81665833963424L16.943955152978784,-95.41125393787853z" style="fill:rgb(246,167,149)"/><path d="M-89.70142091143767,-43.36143291918376L19.720015427813166,140.57779812347616L-83.14193086081711,-38.90598907628641z" style="fill:rgb(34,46,160)"/><path d="M15.949134561464643,-87.24760341617784L102.80495875086747,92.63890822995347L16.943955152978784,-95.41125393787853z" style="fill:rgb(246,149,167)"/><path d="M-83.14193086081711,-38.90598907628641L27.305236231107987,144.1460432860803L-74.80857142855477,-35.972673652483635z" style="fill:rgb(51,38,177)"/><path d="M12.69134541533429,-78.64241871461505L102.5495153887714,100.69984116457053L15.949134561464643,-87.24760341617784z" style="fill:rgb(242,130,183)"/><path d="M27.305236231107987,144.1460432860803L-65.00794432047152,-34.717569413430795L-74.80857142855477,-35.972673652483635z" style="fill:rgb(71,33,192)"/><path d="M7.258389045294591,-69.94639933748597L100.3566141850589,108.99042881086336L12.69134541533429,-78.64241871461505z" style="fill:rgb(233,112,197)"/><path d="M36.01228555883289,146.16670420751825L-54.12645464619431,-35.22636520765328L-65.00794432047152,-34.717569413430795z" style="fill:rgb(92,32,204)"/><path d="M-0.1578721431264632,-61.528064248902915L96.28219289636877,117.17253885087239L7.258389045294591,-69.94639933748597z" style="fill:rgb(220,94,208)"/><path d="M45.49641008444937,146.5306190001755L-42.614583875824174,-37.504657081312864L-54.12645464619431,-35.22636520765328z" style="fill:rgb(115,34,214)"/><path d="M-85.69622257289188,-87.91153804358734L-83.14193086081711,-38.90598907628641L-78.43765727721805,-95.612314224893zM-78.43765727721805,-95.612314224893L-74.80857142855477,-35.972673652483635L-69.84577457195806,-102.65387757043442zM-91.35315767234457,-79.80912446098252L-89.70142091143767,-43.36143291918376L-85.69622257289188,-87.91153804358734z" style="fill:rgb(83,212,212)"/><path d="M-9.265458253154758,-53.75431844710515L90.46852004885834,124.9019787472082L-0.1578721431264632,-61.528064248902915z" style="fill:rgb(203,77,216)"/><path d="M-69.84577457195806,-102.65387757043442L-65.00794432047152,-34.717569413430795L-60.222369201322245,-108.80387812164902zM-95.18212053732545,-71.58340716544119L-94.26902049535241,-49.12555437293659L-91.35315767234457,-79.80912446098252z" style="fill:rgb(83,212,212)"/><path d="M55.36760958443449,145.20104109332536L-30.96471985885351,-41.47319181186886L-42.614583875824174,-37.504657081312864z" style="fill:rgb(139,40,220)"/><path d="M-60.222369201322245,-108.80387812164902L-54.12645464619431,-35.22636520765328L-49.895277193148004,-113.85890313547074zM-96.71766007602335,-55.942268952649776L-95.18212053732545,-71.58340716544119L-97.00811031423639,-63.52761217278567z" style="fill:rgb(83,212,212)"/><path d="M74.60145671510435,137.70340288909006L-9.265458253154758,-53.75431844710515L-19.684121842587633,-46.96922749874532z" style="fill:rgb(183,62,221)"/><path d="M65.2095405022249,142.21894582424125L-19.684121842587633,-46.96922749874532L-30.96471985885351,-41.47319181186886z" style="fill:rgb(162,50,222)"/><path d="M-49.895277193148004,-113.85890313547074L-42.614583875824174,-37.504657081312864L-39.21160848542545,-117.64780919857844zM-39.21160848542545,-117.64780919857844L-30.96471985885351,-41.47319181186886L-28.531204106468362,-120.0351239410641zM-95.18212053732545,-71.58340716544119L-96.71766007602335,-55.942268952649776L-94.26902049535241,-49.12555437293659zM-28.531204106468362,-120.0351239410641L-19.684121842587633,-46.96922749874532L-18.21980207538601,-120.92476408478042zM-91.35315767234457,-79.80912446098252L-94.26902049535241,-49.12555437293659L-89.70142091143767,-43.36143291918376zM-18.21980207538601,-120.92476408478042L-9.265458253154758,-53.75431844710515L-8.641327791756208,-120.26402804855478zM-85.69622257289188,-87.91153804358734L-89.70142091143767,-43.36143291918376L-83.14193086081711,-38.90598907628641zM-8.641327791756208,-120.26402804855478L-9.265458253154758,-53.75431844710515L-0.14876330309784716,-118.04795423866048zM-0.14876330309784716,-118.04795423866048L7.258389045294591,-69.94639933748597L6.92672074700913,-114.32351916554208zM-78.43765727721805,-95.612314224893L-83.14193086081711,-38.90598907628641L-74.80857142855477,-35.972673652483635zM6.92672074700913,-114.32351916554208L12.69134541533429,-78.64241871461505L12.288498878568044,-109.19311429434917zM-69.84577457195806,-102.65387757043442L-74.80857142855477,-35.972673652483635L-65.00794432047152,-34.717569413430795zM-155.69581176148415,-128.0489229832111L-164.80417300754846,-74.63354175896202L-144.983161456898,-141.97466086567565zM12.288498878568044,-109.19311429434917L15.949134561464643,-87.24760341617784L15.688812727697666,-102.81665833963424zM-163.36518135977974,-113.8646190587839L-168.16140504889847,-86.64150853116384L-155.69581176148415,-128.0489229832111zM-60.222369201322245,-108.80387812164902L-65.00794432047152,-34.717569413430795L-54.12645464619431,-35.22636520765328zM-144.983161456898,-141.97466086567565L-146.3352863649561,-56.436976677781196L-131.65660748700827,-155.20876160552018zM-49.895277193148004,-113.85890313547074L-54.12645464619431,-35.22636520765328L-42.614583875824174,-37.504657081312864zM-131.65660748700827,-155.20876160552018L-131.63294634100978,-51.19541642425866L-116.18627374113964,-167.3592672437126zM15.688812727697666,-102.81665833963424L15.949134561464643,-87.24760341617784L16.943955152978784,-95.41125393787853zM-116.18627374113964,-167.3592672437126L-113.88726851257648,-49.02027644519055L-99.07247986645964,-178.0750777339897zM-39.21160848542545,-117.64780919857844L-42.614583875824174,-37.504657081312864L-30.96471985885351,-41.47319181186886zM12.288498878568044,-109.19311429434917L12.69134541533429,-78.64241871461505L15.949134561464643,-87.24760341617784zM-28.531204106468362,-120.0351239410641L-30.96471985885351,-41.47319181186886L-19.684121842587633,-46.96922749874532zM6.92672074700913,-114.32351916554208L7.258389045294591,-69.94639933748597L12.69134541533429,-78.64241871461505zM-168.16140504889847,-86.64150853116384L-163.36518135977974,-113.8646190587839L-167.6185467072847,-99.89383231786417zM-99.07247986645964,-178.0750777339897L-93.79948995173392,-50.12365635379013L-80.83961425901343,-187.04494071621932zM-0.14876330309784716,-118.04795423866048L-0.1578721431264632,-61.528064248902915L7.258389045294591,-69.94639933748597zM-18.21980207538601,-120.92476408478042L-19.684121842587633,-46.96922749874532L-9.265458253154758,-53.75431844710515zM-0.14876330309784716,-118.04795423866048L-9.265458253154758,-53.75431844710515L-0.1578721431264632,-61.528064248902915zM-80.83961425901343,-187.04494071621932L-72.2444682551732,-54.55045202327958L-62.0330426977877,-193.99708406572867z" style="fill:rgb(83,212,212)"/><path d="M-127.08369562677696,-15.908512982708675L-164.80417300754846,-74.63354175896202L-134.5346870105134,-26.427394684302953z" style="fill:rgb(21,57,142)"/><path d="M-155.69581176148415,-128.0489229832111L-168.16140504889847,-86.64150853116384L-164.80417300754846,-74.63354175896202zM-62.0330426977877,-193.99708406572867L-50.22240908483799,-62.15879482465493L-43.217562984357095,-198.70042192024482z" style="fill:rgb(83,212,212)"/><path d="M36.84762209123593,-173.4365472282845L61.389789061905105,-107.84713495958738L58.524535873660746,-120.67949422574452z" style="fill:rgb(246,167,149)"/><path d="M-43.217562984357095,-198.70042192024482L-28.791237149712227,-72.61830811712842L-24.975686887560496,-200.96827333618097zM-144.983161456898,-141.97466086567565L-164.80417300754846,-74.63354175896202L-157.4921382090677,-64.39774275411861zM-24.975686887560496,-200.96827333618097L-8.987701511946092,-85.42855682582658L-7.9039686437398196,-200.66498844934225z" style="fill:rgb(83,212,212)"/><path d="M-115.9786332368108,-7.593039184404768L-157.4921382090677,-64.39774275411861L-127.08369562677696,-15.908512982708675z" style="fill:rgb(34,46,160)"/><path d="M-7.9039686437398196,-200.66498844934225L8.25161618592939,-99.95618995232564L7.394509236269949,-197.7158523413127zM-144.983161456898,-141.97466086567565L-157.4921382090677,-64.39774275411861L-146.3352863649561,-56.436976677781196z" style="fill:rgb(83,212,212)"/><path d="M-164.80417300754846,-74.63354175896202L-127.08369562677696,-15.908512982708675L-157.4921382090677,-64.39774275411861z" style="fill:rgb(21,57,142)"/><path d="M7.394509236269949,-197.7158523413127L22.157729274353684,-115.48550094334446L20.323261782387323,-192.11972280710788z" style="fill:rgb(83,212,212)"/><path d="M61.389789061905105,-107.84713495958738L36.84762209123593,-173.4365472282845L39.50368442903418,-160.84318596806958z" style="fill:rgb(246,167,149)"/><path d="M61.389789061905105,-107.84713495958738L37.98693028913184,-146.60835443780954L60.253186786014375,-93.49235657593674z" style="fill:rgb(246,149,167)"/><path d="M-131.65660748700827,-155.20876160552018L-146.3352863649561,-56.436976677781196L-131.63294634100978,-51.19541642425866zM20.323261782387323,-192.11972280710788L32.17589956516022,-131.27450449225384L30.312593948905043,-183.96344536564627z" style="fill:rgb(83,212,212)"/><path d="M-101.53082429316271,-1.9308272339346542L-146.3352863649561,-56.436976677781196L-115.9786332368108,-7.593039184404768z" style="fill:rgb(51,38,177)"/><path d="M-116.18627374113964,-167.3592672437126L-131.63294634100978,-51.19541642425866L-113.88726851257648,-49.02027644519055zM30.312593948905043,-183.96344536564627L37.98693028913184,-146.60835443780954L36.84762209123593,-173.4365472282845z" style="fill:rgb(83,212,212)"/><path d="M-157.4921382090677,-64.39774275411861L-115.9786332368108,-7.593039184404768L-146.3352863649561,-56.436976677781196z" style="fill:rgb(34,46,160)"/><path d="M37.98693028913184,-146.60835443780954L61.389789061905105,-107.84713495958738L39.50368442903418,-160.84318596806958z" style="fill:rgb(246,149,167)"/><path d="M60.253186786014375,-93.49235657593674L32.17589956516022,-131.27450449225384L54.992343599699346,-78.16807003758848z" style="fill:rgb(242,130,183)"/><path d="M-99.07247986645964,-178.0750777339897L-113.88726851257648,-49.02027644519055L-93.79948995173392,-50.12365635379013zM36.84762209123593,-173.4365472282845L37.98693028913184,-146.60835443780954L39.50368442903418,-160.84318596806958zM-80.83961425901343,-187.04494071621932L-93.79948995173392,-50.12365635379013L-72.2444682551732,-54.55045202327958z" style="fill:rgb(83,212,212)"/><path d="M-113.88726851257648,-49.02027644519055L-101.53082429316271,-1.9308272339346542L-84.24226049195744,0.7216720014361009z" style="fill:rgb(71,33,192)"/><path d="M-146.3352863649561,-56.436976677781196L-101.53082429316271,-1.9308272339346542L-131.63294634100978,-51.19541642425866z" style="fill:rgb(51,38,177)"/><path d="M30.312593948905043,-183.96344536564627L32.17589956516022,-131.27450449225384L37.98693028913184,-146.60835443780954z" style="fill:rgb(83,212,212)"/><path d="M32.17589956516022,-131.27450449225384L60.253186786014375,-93.49235657593674L37.98693028913184,-146.60835443780954z" style="fill:rgb(242,130,183)"/><path d="M54.992343599699346,-78.16807003758848L22.157729274353684,-115.48550094334446L45.68266841627353,-62.52021901348283z" style="fill:rgb(233,112,197)"/><path d="M-62.0330426977877,-193.99708406572867L-72.2444682551732,-54.55045202327958L-50.22240908483799,-62.15879482465493zM20.323261782387323,-192.11972280710788L22.157729274353684,-115.48550094334446L32.17589956516022,-131.27450449225384zM-43.217562984357095,-198.70042192024482L-50.22240908483799,-62.15879482465493L-28.791237149712227,-72.61830811712842zM7.394509236269949,-197.7158523413127L8.25161618592939,-99.95618995232564L22.157729274353684,-115.48550094334446zM-24.975686887560496,-200.96827333618097L-28.791237149712227,-72.61830811712842L-8.987701511946092,-85.42855682582658zM-7.9039686437398196,-200.66498844934225L-8.987701511946092,-85.42855682582658L8.25161618592939,-99.95618995232564z" style="fill:rgb(83,212,212)"/><path d="M-93.79948995173392,-50.12365635379013L-84.24226049195744,0.7216720014361009L-64.79957698891067,0.13855548477364424z" style="fill:rgb(92,32,204)"/><path d="M-101.53082429316271,-1.9308272339346542L-113.88726851257648,-49.02027644519055L-131.63294634100978,-51.19541642425866z" style="fill:rgb(71,33,192)"/><path d="M45.68266841627353,-62.52021901348283L8.25161618592939,-99.95618995232564L32.61904857971875,-47.25647797381679z" style="fill:rgb(220,94,208)"/><path d="M22.157729274353684,-115.48550094334446L54.992343599699346,-78.16807003758848L32.17589956516022,-131.27450449225384z" style="fill:rgb(233,112,197)"/><path d="M-72.2444682551732,-54.55045202327958L-64.79957698891067,0.13855548477364424L-44.048099555564605,-3.7440558009224447z" style="fill:rgb(115,34,214)"/><path d="M32.61904857971875,-47.25647797381679L-8.987701511946092,-85.42855682582658L16.319152911644732,-33.10278611150348z" style="fill:rgb(203,77,216)"/><path d="M-84.24226049195744,0.7216720014361009L-93.79948995173392,-50.12365635379013L-113.88726851257648,-49.02027644519055z" style="fill:rgb(92,32,204)"/><path d="M-8.987701511946092,-85.42855682582658L-2.4960614264204275,-20.751572930185972L16.319152911644732,-33.10278611150348z" style="fill:rgb(183,62,221)"/><path d="M-50.22240908483799,-62.15879482465493L-44.048099555564605,-3.7440558009224447L-22.945130129837224,-10.808293317644129z" style="fill:rgb(139,40,220)"/><path d="M-28.791237149712227,-72.61830811712842L-22.945130129837224,-10.808293317644129L-2.4960614264204275,-20.751572930185972z" style="fill:rgb(162,50,222)"/><path d="M8.25161618592939,-99.95618995232564L45.68266841627353,-62.52021901348283L22.157729274353684,-115.48550094334446z" style="fill:rgb(220,94,208)"/><path d="M-64.79957698891067,0.13855548477364424L-72.2444682551732,-54.55045202327958L-93.79948995173392,-50.12365635379013z" style="fill:rgb(115,34,214)"/><path d="M-8.987701511946092,-85.42855682582658L32.61904857971875,-47.25647797381679L8.25161618592939,-99.95618995232564z" style="fill:rgb(203,77,216)"/><path d="M-44.048099555564605,-3.7440558009224447L-50.22240908483799,-62.15879482465493L-72.2444682551732,-54.55045202327958z" style="fill:rgb(139,40,220)"/><path d="M-2.4960614264204275,-20.751572930185972L-8.987701511946092,-85.42855682582658L-28.791237149712227,-72.61830811712842z" style="fill:rgb(183,62,221)"/><path d="M-22.945130129837224,-10.808293317644129L-28.791237149712227,-72.61830811712842L-50.22240908483799,-62.15879482465493z" style="fill:rgb(162,50,222)"/></svg>
