<?xml version="1.0" encoding="UTF-8"?>
<!-- Generated by jsxcad -->
<!DOCTYPE svg PUBLIC "-//W3C//DTD SVG 1.1 Tiny//EN" "http://www.w3.org/Graphics/SVG/1.1/DTD/svg11-tiny.dtd">
<svg viewBox="-250 -250 500 500" width="500" height="500" xmlns="http://www.w3.org/2000/svg"><path d="M13.541667709755497,135.63410366195038L-94.26902049535241,-49.12555437293659L8.986078745845624,129.53781306996396z" style="fill:rgb(21,57,142)"/><path d="M15.688812727697666,-102.81665833963424L102.80495875086747,92.63890822995347L101.15059801015975,85.1238826213286z" style="fill:rgb(246,167,149)"/><path d="M19.720015427813166,140.57779812347616L-89.70142091143767,-43.36143291918376L13.541667709755497,135.63410366195038z" style="fill:rgb(34,46,160)"/><path d="M102.80495875086747,92.63890822995347L15.949134561464643,-87.24760341617784L102.5495153887714,100.69984116457053z" style="fill:rgb(246,149,167)"/><path d="M27.305236231107987,144.1460432860803L-83.14193086081711,-38.90598907628641L19.720015427813166,140.57779812347616z" style="fill:rgb(51,38,177)"/><path d="M102.5495153887714,100.69984116457053L12.69134541533429,-78.64241871461505L100.3566141850589,108.99042881086336z" style="fill:rgb(242,130,183)"/><path d="M-65.00794432047152,-34.717569413430795L27.305236231107987,144.1460432860803L36.01228555883289,146.16670420751825z" style="fill:rgb(71,33,192)"/><path d="M100.3566141850589,108.99042881086336L7.258389045294591,-69.94639933748597L96.28219289636877,117.17253885087239z" style="fill:rgb(233,112,197)"/><path d="M-54.12645464619431,-35.22636520765328L36.01228555883289,146.16670420751825L45.49641008444937,146.5306190001755z" style="fill:rgb(92,32,204)"/><path d="M96.28219289636877,117.17253885087239L-0.1578721431264632,-61.528064248902915L90.46852004885834,124.9019787472082z" style="fill:rgb(220,94,208)"/><path d="M-42.614583875824174,-37.504657081312864L45.49641008444937,146.5306190001755L55.36760958443449,145.20104109332536z" style="fill:rgb(115,34,214)"/><path d="M90.46852004885834,124.9019787472082L-9.265458253154758,-53.75431844710515L83.14141024225724,131.8463032439231z" style="fill:rgb(203,77,216)"/><path d="M-9.265458253154758,-53.75431844710515L74.60145671510435,137.70340288909006L83.14141024225724,131.8463032439231z" style="fill:rgb(183,62,221)"/><path d="M-30.96471985885351,-41.47319181186886L55.36760958443449,145.20104109332536L65.2095405022249,142.21894582424125z" style="fill:rgb(139,40,220)"/><path d="M-19.684121842587633,-46.96922749874532L65.2095405022249,142.21894582424125L74.60145671510435,137.70340288909006z" style="fill:rgb(162,50,222)"/><path d="M-94.26902049535241,-49.12555437293659L13.541667709755497,135.63410366195038L-89.70142091143767,-43.36143291918376z" style="fill:rgb(21,57,142)"/><path d="M102.80495875086747,92.63890822995347L15.688812727697666,-102.81665833963424L16.943955152978784,-95.41125393787853z" style="fill:rgb(246,167,149)"/><path d="M-89.70142091143767,-43.36143291918376L19.720015427813166,140.57779812347616L-83.14193086081711,-38.90598907628641z" style="fill:rgb(34,46,160)"/><path d="M15.949134561464643,-87.24760341617784L102.80495875086747,92.63890822995347L16.943955152978784,-95.41125393787853z" style="fill:rgb(246,149,167)"/><path d="M-83.14193086081711,-38.90598907628641L27.305236231107987,144.1460432860803L-74.80857142855477,-35.972673652483635z" style="fill:rgb(51,38,177)"/><path d="M12.69134541533429,-78.64241871461505L102.5495153887714,100.69984116457053L15.949134561464643,-87.24760341617784z" style="fill:rgb(242,130,183)"/><path d="M27.305236231107987,144.1460432860803L-65.00794432047152,-34.717569413430795L-74.80857142855477,-35.972673652483635z" style="fill:rgb(71,33,192)"/><path d="M7.258389045294591,-69.94639933748597L100.3566141850589,108.99042881086336L12.69134541533429,-78.64241871461505z" style="fill:rgb(233,112,197)"/><path d="M36.01228555883289,146.16670420751825L-54.12645464619431,-35.22636520765328L-65.00794432047152,-34.717569413430795z" style="fill:rgb(92,32,204)"/><path d="M-0.1578721431264632,-61.528064248902915L96.28219289636877,117.17253885087239L7.258389045294591,-69.94639933748597z" style="fill:rgb(220,94,208)"/><path d="M-91.35315767234457,-79.80912446098252L-94.26902049535241,-49.12555437293659L-85.69622257289188,-87.91153804358734z" style="fill:rgb(83,212,212)"/><path d="M45.49641008444937,146.5306190001755L-42.614583875824174,-37.504657081312864L-54.12645464619431,-35.22636520765328z" style="fill:rgb(115,34,214)"/><path d="M-85.69622257289188,-87.91153804358734L-83.14193086081711,-38.90598907628641L-78.43765727721805,-95.612314224893zM-78.43765727721805,-95.612314224893L-74.80857142855477,-35.972673652483635L-69.84577457195806,-102.65387757043442z" style="fill:rgb(83,212,212)"/><path d="M-9.265458253154758,-53.75431844710515L90.46852004885834,124.9019787472082L-0.1578721431264632,-61.528064248902915z" style="fill:rgb(203,77,216)"/><path d="M-69.84577457195806,-102.65387757043442L-65.00794432047152,-34.717569413430795L-60.222369201322245,-108.80387812164902zM-95.18212053732545,-71.58340716544119L-94.26902049535241,-49.12555437293659L-91.35315767234457,-79.80912446098252z" style="fill:rgb(83,212,212)"/><path d="M55.36760958443449,145.20104109332536L-30.96471985885351,-41.47319181186886L-42.614583875824174,-37.504657081312864z" style="fill:rgb(139,40,220)"/><path d="M-60.222369201322245,-108.80387812164902L-54.12645464619431,-35.22636520765328L-49.895277193148004,-113.85890313547074zM-96.71766007602335,-55.942268952649776L-95.18212053732545,-71.58340716544119L-97.00811031423639,-63.52761217278567z" style="fill:rgb(83,212,212)"/><path d="M74.60145671510435,137.70340288909006L-9.265458253154758,-53.75431844710515L-19.684121842587633,-46.96922749874532z" style="fill:rgb(183,62,221)"/><path d="M65.2095405022249,142.21894582424125L-19.684121842587633,-46.96922749874532L-30.96471985885351,-41.47319181186886z" style="fill:rgb(162,50,222)"/><path d="M-49.895277193148004,-113.85890313547074L-42.614583875824174,-37.504657081312864L-39.21160848542545,-117.64780919857844zM-39.21160848542545,-117.64780919857844L-30.96471985885351,-41.47319181186886L-28.531204106468362,-120.0351239410641zM-95.18212053732545,-71.58340716544119L-96.71766007602335,-55.942268952649776L-94.26902049535241,-49.12555437293659zM-28.531204106468362,-120.0351239410641L-19.684121842587633,-46.96922749874532L-18.21980207538601,-120.92476408478042zM-85.69622257289188,-87.91153804358734L-94.26902049535241,-49.12555437293659L-89.70142091143767,-43.36143291918376zM-18.21980207538601,-120.92476408478042L-9.265458253154758,-53.75431844710515L-8.641327791756208,-120.26402804855478zM-8.641327791756208,-120.26402804855478L-0.1578721431264632,-61.528064248902915L-0.14876330309784716,-118.04795423866048zM-85.69622257289188,-87.91153804358734L-89.70142091143767,-43.36143291918376L-83.14193086081711,-38.90598907628641zM-78.43765727721805,-95.612314224893L-83.14193086081711,-38.90598907628641L-74.80857142855477,-35.972673652483635zM-0.14876330309784716,-118.04795423866048L-0.1578721431264632,-61.528064248902915L6.92672074700913,-114.32351916554208zM6.92672074700913,-114.32351916554208L12.69134541533429,-78.64241871461505L12.288498878568044,-109.19311429434917zM-69.84577457195806,-102.65387757043442L-74.80857142855477,-35.972673652483635L-65.00794432047152,-34.717569413430795zM12.288498878568044,-109.19311429434917L15.949134561464643,-87.24760341617784L15.688812727697666,-102.81665833963424zM-60.222369201322245,-108.80387812164902L-65.00794432047152,-34.717569413430795L-54.12645464619431,-35.22636520765328zM-151.2539673778291,-142.9684751405649L-153.42938749628203,-49.917444656041575L-136.8157854514443,-157.24623099139822zM-162.90393036160717,-127.92516398438394L-165.4481783584075,-58.68304717329876L-151.2539673778291,-142.9684751405649zM-136.8157854514443,-157.24623099139822L-137.5053317993168,-44.10133752636631L-120.09405758552982,-170.34595375798642zM-171.29895721271293,-112.57443477825728L-173.25536184473373,-69.89808275889085L-162.90393036160717,-127.92516398438394zM-49.895277193148004,-113.85890313547074L-54.12645464619431,-35.22636520765328L-42.614583875824174,-37.504657081312864zM15.688812727697666,-102.81665833963424L15.949134561464643,-87.24760341617784L16.943955152978784,-95.41125393787853zM-120.09405758552982,-170.34595375798642L-118.2106379140827,-41.63172101730154L-101.62099460522707,-181.89912468956493zM-39.21160848542545,-117.64780919857844L-42.614583875824174,-37.504657081312864L-30.96471985885351,-41.47319181186886zM12.288498878568044,-109.19311429434917L12.69134541533429,-78.64241871461505L15.949134561464643,-87.24760341617784zM-176.75424233723294,-83.00354374412551L-171.29895721271293,-112.57443477825728L-176.02698986722433,-97.4195036456503zM-101.62099460522707,-181.89912468956493L-96.30723737930326,-42.757525178854166L-81.95112201082539,-191.57873383731697zM-28.531204106468362,-120.0351239410641L-30.96471985885351,-41.47319181186886L-19.684121842587633,-46.96922749874532zM6.92672074700913,-114.32351916554208L7.258389045294591,-69.94639933748597L12.69134541533429,-78.64241871461505zM-18.21980207538601,-120.92476408478042L-19.684121842587633,-46.96922749874532L-9.265458253154758,-53.75431844710515zM-8.641327791756208,-120.26402804855478L-9.265458253154758,-53.75431844710515L-0.1578721431264632,-61.528064248902915zM-81.95112201082539,-191.57873383731697L-72.75776170438859,-47.54094660796897L-61.65953024285655,-199.09774837291604zM6.92672074700913,-114.32351916554208L-0.1578721431264632,-61.528064248902915L7.258389045294591,-69.94639933748597z" style="fill:rgb(83,212,212)"/><path d="M-134.63772261754013,-10.360965968214588L-173.25536184473373,-69.89808275889085L-142.60803669576197,-21.8763584671878z" style="fill:rgb(21,57,142)"/><path d="M-61.65953024285655,-199.09774837291604L-48.6715933579246,-55.83308597894902L-41.34200689029518,-204.20960159796115zM-171.29895721271293,-112.57443477825728L-176.75424233723294,-83.00354374412551L-173.25536184473373,-69.89808275889085z" style="fill:rgb(83,212,212)"/><path d="M45.83152300139553,-177.2400854985409L70.39589125000852,-110.36702836944228L67.13717159365902,-124.271032562839z" style="fill:rgb(246,167,149)"/><path d="M-41.34200689029518,-204.20960159796115L-25.227214504393253,-67.27050329695389L-21.615032983657603,-206.7115513455803zM-162.90393036160717,-127.92516398438394L-173.25536184473373,-69.89808275889085L-165.4481783584075,-58.68304717329876zM-21.615032983657603,-206.7115513455803L-3.5805895951681648,-81.2959564905593L-3.1136984811579693,-206.4518179792803z" style="fill:rgb(83,212,212)"/><path d="M-122.66471710706878,-1.2172156347969099L-165.4481783584075,-58.68304717329876L-134.63772261754013,-10.360965968214588z" style="fill:rgb(34,46,160)"/><path d="M-3.1136984811579693,-206.4518179792803L15.226854421541281,-97.20152905323869L13.514666682169407,-203.34032404987676zM-151.2539673778291,-142.9684751405649L-165.4481783584075,-58.68304717329876L-153.42938749628203,-49.917444656041575z" style="fill:rgb(83,212,212)"/><path d="M-173.25536184473373,-69.89808275889085L-134.63772261754013,-10.360965968214588L-165.4481783584075,-58.68304717329876z" style="fill:rgb(21,57,142)"/><path d="M13.514666682169407,-203.34032404987676L30.34627808331157,-114.18774745281661L27.623237889525416,-197.36317948341951zM-136.8157854514443,-157.24623099139822L-153.42938749628203,-49.917444656041575L-137.5053317993168,-44.10133752636631z" style="fill:rgb(83,212,212)"/><path d="M70.39589125000852,-110.36702836944228L45.83152300139553,-177.2400854985409L48.8757917689875,-163.6011008360344z" style="fill:rgb(246,167,149)"/><path d="M70.39589125000852,-110.36702836944228L47.37563741869567,-148.13513228446425L69.29762738070953,-94.76719024298279z" style="fill:rgb(246,149,167)"/><path d="M27.623237889525416,-197.36317948341951L41.174341794440636,-131.42900199475514L38.58667946352587,-188.59966902154315z" style="fill:rgb(83,212,212)"/><path d="M-107.01045614262668,5.049742227520947L-153.42938749628203,-49.917444656041575L-122.66471710706878,-1.2172156347969099z" style="fill:rgb(51,38,177)"/><path d="M-120.09405758552982,-170.34595375798642L-137.5053317993168,-44.10133752636631L-118.2106379140827,-41.63172101730154z" style="fill:rgb(83,212,212)"/><path d="M-165.4481783584075,-58.68304717329876L-122.66471710706878,-1.2172156347969099L-153.42938749628203,-49.917444656041575z" style="fill:rgb(34,46,160)"/><path d="M47.37563741869567,-148.13513228446425L70.39589125000852,-110.36702836944228L48.8757917689875,-163.6011008360344z" style="fill:rgb(246,149,167)"/><path d="M38.58667946352587,-188.59966902154315L41.174341794440636,-131.42900199475514L45.83152300139553,-177.2400854985409zM-101.62099460522707,-181.89912468956493L-118.2106379140827,-41.63172101730154L-96.30723737930326,-42.757525178854166z" style="fill:rgb(83,212,212)"/><path d="M69.29762738070953,-94.76719024298279L41.174341794440636,-131.42900199475514L63.68668621885236,-78.07057790331187z" style="fill:rgb(242,130,183)"/><path d="M45.83152300139553,-177.2400854985409L47.37563741869567,-148.13513228446425L48.8757917689875,-163.6011008360344zM-81.95112201082539,-191.57873383731697L-96.30723737930326,-42.757525178854166L-72.75776170438859,-47.54094660796897z" style="fill:rgb(83,212,212)"/><path d="M-118.2106379140827,-41.63172101730154L-107.01045614262668,5.049742227520947L-88.2109351709491,8.03396581440999z" style="fill:rgb(71,33,192)"/><path d="M-153.42938749628203,-49.917444656041575L-107.01045614262668,5.049742227520947L-137.5053317993168,-44.10133752636631z" style="fill:rgb(51,38,177)"/><path d="M41.174341794440636,-131.42900199475514L69.29762738070953,-94.76719024298279L47.37563741869567,-148.13513228446425z" style="fill:rgb(242,130,183)"/><path d="M-61.65953024285655,-199.09774837291604L-72.75776170438859,-47.54094660796897L-48.6715933579246,-55.83308597894902z" style="fill:rgb(83,212,212)"/><path d="M63.68668621885236,-78.07057790331187L30.34627808331157,-114.18774745281661L53.6262813470997,-60.98497044113903z" style="fill:rgb(233,112,197)"/><path d="M27.623237889525416,-197.36317948341951L30.34627808331157,-114.18774745281661L41.174341794440636,-131.42900199475514zM45.83152300139553,-177.2400854985409L41.174341794440636,-131.42900199475514L47.37563741869567,-148.13513228446425zM-41.34200689029518,-204.20960159796115L-48.6715933579246,-55.83308597894902L-25.227214504393253,-67.27050329695389zM13.514666682169407,-203.34032404987676L15.226854421541281,-97.20152905323869L30.34627808331157,-114.18774745281661zM-21.615032983657603,-206.7115513455803L-25.227214504393253,-67.27050329695389L-3.5805895951681648,-81.2959564905593zM-3.1136984811579693,-206.4518179792803L-3.5805895951681648,-81.2959564905593L15.226854421541281,-97.20152905323869z" style="fill:rgb(83,212,212)"/><path d="M-107.01045614262668,5.049742227520947L-118.2106379140827,-41.63172101730154L-137.5053317993168,-44.10133752636631z" style="fill:rgb(71,33,192)"/><path d="M-96.30723737930326,-42.757525178854166L-88.2109351709491,8.03396581440999L-67.01291726242734,7.472365992838118z" style="fill:rgb(92,32,204)"/><path d="M53.6262813470997,-60.98497044113903L15.226854421541281,-97.20152905323869L39.426129702961745,-44.29256880289414z" style="fill:rgb(220,94,208)"/><path d="M30.34627808331157,-114.18774745281661L63.68668621885236,-78.07057790331187L41.174341794440636,-131.42900199475514z" style="fill:rgb(233,112,197)"/><path d="M-72.75776170438859,-47.54094660796897L-67.01291726242734,7.472365992838118L-44.34645440004013,3.2824727650051395z" style="fill:rgb(115,34,214)"/><path d="M39.426129702961745,-44.29256880289414L-3.5805895951681648,-81.2959564905593L21.6488801332938,-28.800708458000383z" style="fill:rgb(203,77,216)"/><path d="M-88.2109351709491,8.03396581440999L-96.30723737930326,-42.757525178854166L-118.2106379140827,-41.63172101730154z" style="fill:rgb(92,32,204)"/><path d="M-3.5805895951681648,-81.2959564905593L1.0895987775652727,-15.282216681032619L21.6488801332938,-28.800708458000383z" style="fill:rgb(183,62,221)"/><path d="M-48.6715933579246,-55.83308597894902L-44.34645440004013,3.2824727650051395L-21.27265214279218,-4.41316010742706z" style="fill:rgb(139,40,220)"/><path d="M-25.227214504393253,-67.27050329695389L-21.27265214279218,-4.41316010742706L1.0895987775652727,-15.282216681032619z" style="fill:rgb(162,50,222)"/><path d="M15.226854421541281,-97.20152905323869L53.6262813470997,-60.98497044113903L30.34627808331157,-114.18774745281661z" style="fill:rgb(220,94,208)"/><path d="M-67.01291726242734,7.472365992838118L-72.75776170438859,-47.54094660796897L-96.30723737930326,-42.757525178854166z" style="fill:rgb(115,34,214)"/><path d="M-3.5805895951681648,-81.2959564905593L39.426129702961745,-44.29256880289414L15.226854421541281,-97.20152905323869z" style="fill:rgb(203,77,216)"/><path d="M-44.34645440004013,3.2824727650051395L-48.6715933579246,-55.83308597894902L-72.75776170438859,-47.54094660796897z" style="fill:rgb(139,40,220)"/><path d="M1.0895987775652727,-15.282216681032619L-3.5805895951681648,-81.2959564905593L-25.227214504393253,-67.27050329695389z" style="fill:rgb(183,62,221)"/><path d="M-21.27265214279218,-4.41316010742706L-25.227214504393253,-67.27050329695389L-48.6715933579246,-55.83308597894902z" style="fill:rgb(162,50,222)"/></svg>
