<?xml version="1.0" encoding="UTF-8"?>
<!-- Generated by jsxcad -->
<!DOCTYPE svg PUBLIC "-//W3C//DTD SVG 1.1 Tiny//EN" "http://www.w3.org/Graphics/SVG/1.1/DTD/svg11-tiny.dtd">
<svg viewBox="-250 -250 500 500" width="500" height="500" xmlns="http://www.w3.org/2000/svg"><path d="M11.255651732204367,142.21553255982172L-103.42130081725622,-51.88923014568585L0.6382377893160026,126.03881523420307z" style="fill:rgb(19,60,138)"/><path d="M106.70460641601557,81.6240209429685L22.867789629783005,-86.90946992084615L108.60462580673023,101.61593327991835z" style="fill:rgb(247,158,158)"/><path d="M30.851758906578965,151.14202561860546L-93.00666201300999,-36.45213028517852L11.255651732204367,142.21553255982172z" style="fill:rgb(52,37,178)"/><path d="M108.60462580673023,101.61593327991835L10.197272776817169,-64.59243737713278L99.24425988491807,122.71464641840541z" style="fill:rgb(235,116,194)"/><path d="M-42.8469879478871,-32.03132306553684L30.851758906578965,151.14202561860546L55.61820509700977,150.57034549985082z" style="fill:rgb(100,32,208)"/><path d="M99.24425988491807,122.71464641840541L-13.411801178245215,-44.78507407567712L80.23498905893544,140.35794308745193z" style="fill:rgb(202,76,217)"/><path d="M-13.411801178245215,-44.78507407567712L55.61820509700977,150.57034549985082L80.23498905893544,140.35794308745193z" style="fill:rgb(154,46,222)"/><path d="M-103.42130081725622,-51.88923014568585L11.255651732204367,142.21553255982172L-93.00666201300999,-36.45213028517852z" style="fill:rgb(19,60,138)"/><path d="M22.867789629783005,-86.90946992084615L106.70460641601557,81.6240209429685L22.389156973083665,-106.88143696194572z" style="fill:rgb(247,158,158)"/><path d="M-93.00666201300999,-36.45213028517852L30.851758906578965,151.14202561860546L-71.4470752955612,-29.153161902969565z" style="fill:rgb(52,37,178)"/><path d="M10.197272776817169,-64.59243737713278L108.60462580673023,101.61593327991835L22.867789629783005,-86.90946992084615z" style="fill:rgb(235,116,194)"/><path d="M30.851758906578965,151.14202561860546L-42.8469879478871,-32.03132306553684L-71.4470752955612,-29.153161902969565z" style="fill:rgb(100,32,208)"/><path d="M-87.79761320922152,-92.72064539218273L-71.4470752955612,-29.153161902969565L-65.705533122136,-110.4753335732915zM-101.32246301501222,-71.96466904363476L-93.00666201300999,-36.45213028517852L-87.79761320922152,-92.72064539218273zM-65.705533122136,-110.4753335732915L-42.8469879478871,-32.03132306553684L-39.016878447744915,-122.23387095676617z" style="fill:rgb(83,212,212)"/><path d="M-13.411801178245215,-44.78507407567712L99.24425988491807,122.71464641840541L10.197272776817169,-64.59243737713278z" style="fill:rgb(202,76,217)"/><path d="M55.61820509700977,150.57034549985082L-13.411801178245215,-44.78507407567712L-42.8469879478871,-32.03132306553684z" style="fill:rgb(154,46,222)"/><path d="M-39.016878447744915,-122.23387095676617L-13.411801178245215,-44.78507407567712L-12.319564409515845,-125.92481208900084zM-93.00666201300999,-36.45213028517852L-101.32246301501222,-71.96466904363476L-103.42130081725622,-51.88923014568585zM-12.319564409515845,-125.92481208900084L10.197272776817169,-64.59243737713278L9.612098071960062,-120.63068492746709zM-87.79761320922152,-92.72064539218273L-93.00666201300999,-36.45213028517852L-71.4470752955612,-29.153161902969565zM9.612098071960062,-120.63068492746709L22.867789629783005,-86.90946992084615L22.389156973083665,-106.88143696194572zM-158.74918256090166,-138.32932558997334L-156.99324571456017,-46.642230829132956L-139.3732435989553,-158.25621869229136zM-172.7268066633361,-117.24892759156602L-172.61640330531839,-59.468120880143445L-158.74918256090166,-138.32932558997334zM-139.3732435989553,-158.25621869229136L-134.12967712087305,-39.25168428993186L-115.82046553223896,-176.0100730341412zM-65.705533122136,-110.4753335732915L-71.4470752955612,-29.153161902969565L-42.8469879478871,-32.03132306553684zM-115.82046553223896,-176.0100730341412L-105.4258534324152,-38.235189305732625L-89.39676086320698,-190.7146810165552zM-180.3535989752869,-76.4553313486954L-172.7268066633361,-117.24892759156602L-180.21754023313116,-96.186353700936zM9.612098071960062,-120.63068492746709L10.197272776817169,-64.59243737713278L22.867789629783005,-86.90946992084615zM-39.016878447744915,-122.23387095676617L-42.8469879478871,-32.03132306553684L-13.411801178245215,-44.78507407567712zM-12.319564409515845,-125.92481208900084L-13.411801178245215,-44.78507407567712L10.197272776817169,-64.59243737713278zM-89.39676086320698,-190.7146810165552L-73.01715395926585,-43.99870944237014L-61.47445569332499,-201.62512265510182zM-61.47445569332499,-201.62512265510182L-39.597578217902615,-56.270730602207905L-33.49205194392633,-208.12352571171363z" style="fill:rgb(83,212,212)"/><path d="M48.25510647190467,-183.3525192445718L74.91376191812395,-111.63112722731907L69.34422480187257,-130.39702937654152z" style="fill:rgb(246,169,146)"/><path d="M-172.7268066633361,-117.24892759156602L-180.3535989752869,-76.4553313486954L-172.61640330531839,-59.468120880143445zM-33.49205194392633,-208.12352571171363L-8.092702575655315,-74.0692161304916L-6.957422708684804,-209.73088498765293z" style="fill:rgb(83,212,212)"/><path d="M-126.02289361785809,1.9851280406099152L-172.61640330531839,-59.468120880143445L-141.63954160514695,-11.342154411528341z" style="fill:rgb(32,48,157)"/><path d="M-6.957422708684804,-209.73088498765293L18.74969924221448,-95.81029183618483L16.561357137648475,-206.14026483389804zM-158.74918256090166,-138.32932558997334L-172.61640330531839,-59.468120880143445L-156.99324571456017,-46.642230829132956zM16.561357137648475,-206.14026483389804L38.74250028440243,-119.53880380586493L35.47461395158197,-197.27286289163038z" style="fill:rgb(83,212,212)"/><path d="M74.91376191812395,-111.63112722731907L48.25510647190467,-183.3525192445718L53.57798588488264,-164.98478992198636z" style="fill:rgb(246,169,146)"/><path d="M-139.3732435989553,-158.25621869229136L-156.99324571456017,-46.642230829132956L-134.12967712087305,-39.25168428993186zM35.47461395158197,-197.27286289163038L50.513057650666966,-143.21604911869952L48.25510647190467,-183.3525192445718z" style="fill:rgb(83,212,212)"/><path d="M74.91376191812395,-111.63112722731907L50.513057650666966,-143.21604911869952L72.44242879315988,-89.70733500840159z" style="fill:rgb(246,146,169)"/><path d="M-103.58167986366634,10.011950466397208L-156.99324571456017,-46.642230829132956L-126.02289361785809,1.9851280406099152z" style="fill:rgb(54,37,180)"/><path d="M-172.61640330531839,-59.468120880143445L-126.02289361785809,1.9851280406099152L-156.99324571456017,-46.642230829132956z" style="fill:rgb(32,48,157)"/><path d="M-115.82046553223896,-176.0100730341412L-134.12967712087305,-39.25168428993186L-105.4258534324152,-38.235189305732625z" style="fill:rgb(83,212,212)"/><path d="M50.513057650666966,-143.21604911869952L74.91376191812395,-111.63112722731907L53.57798588488264,-164.98478992198636z" style="fill:rgb(246,146,169)"/><path d="M48.25510647190467,-183.3525192445718L50.513057650666966,-143.21604911869952L53.57798588488264,-164.98478992198636zM-89.39676086320698,-190.7146810165552L-105.4258534324152,-38.235189305732625L-73.01715395926585,-43.99870944237014z" style="fill:rgb(83,212,212)"/><path d="M72.44242879315988,-89.70733500840159L38.74250028440243,-119.53880380586493L61.61212745475105,-66.14540073151515z" style="fill:rgb(238,121,190)"/><path d="M35.47461395158197,-197.27286289163038L38.74250028440243,-119.53880380586493L50.513057650666966,-143.21604911869952zM-61.47445569332499,-201.62512265510182L-73.01715395926585,-43.99870944237014L-39.597578217902615,-56.270730602207905z" style="fill:rgb(83,212,212)"/><path d="M-156.99324571456017,-46.642230829132956L-103.58167986366634,10.011950466397208L-134.12967712087305,-39.25168428993186z" style="fill:rgb(54,37,180)"/><path d="M16.561357137648475,-206.14026483389804L18.74969924221448,-95.81029183618483L38.74250028440243,-119.53880380586493zM-33.49205194392633,-208.12352571171363L-39.597578217902615,-56.270730602207905L-8.092702575655315,-74.0692161304916z" style="fill:rgb(83,212,212)"/><path d="M-105.4258534324152,-38.235189305732625L-103.58167986366634,10.011950466397208L-75.71421530696288,11.776616182342144z" style="fill:rgb(81,32,199)"/><path d="M-6.957422708684804,-209.73088498765293L-8.092702575655315,-74.0692161304916L18.74969924221448,-95.81029183618483z" style="fill:rgb(83,212,212)"/><path d="M38.74250028440243,-119.53880380586493L72.44242879315988,-89.70733500840159L50.513057650666966,-143.21604911869952z" style="fill:rgb(238,121,190)"/><path d="M61.61212745475105,-66.14540073151515L18.74969924221448,-95.81029183618483L42.86244554875055,-42.796343816159585z" style="fill:rgb(222,97,206)"/><path d="M-103.58167986366634,10.011950466397208L-105.4258534324152,-38.235189305732625L-134.12967712087305,-39.25168428993186z" style="fill:rgb(81,32,199)"/><path d="M-73.01715395926585,-43.99870944237014L-75.71421530696288,11.776616182342144L-44.4971529673606,6.831553821449872z" style="fill:rgb(111,34,212)"/><path d="M42.86244554875055,-42.796343816159585L-8.092702575655315,-74.0692161304916L17.471845837172417,-21.65735836335114z" style="fill:rgb(200,74,217)"/><path d="M18.74969924221448,-95.81029183618483L61.61212745475105,-66.14540073151515L38.74250028440243,-119.53880380586493z" style="fill:rgb(222,97,206)"/><path d="M-39.597578217902615,-56.270730602207905L-44.4971529673606,6.831553821449872L-12.510519709029953,-4.614228282821583z" style="fill:rgb(143,42,220)"/><path d="M-8.092702575655315,-74.0692161304916L-12.510519709029953,-4.614228282821583L17.471845837172417,-21.65735836335114z" style="fill:rgb(173,56,222)"/><path d="M-75.71421530696288,11.776616182342144L-73.01715395926585,-43.99870944237014L-105.4258534324152,-38.235189305732625z" style="fill:rgb(111,34,212)"/><path d="M-8.092702575655315,-74.0692161304916L42.86244554875055,-42.796343816159585L18.74969924221448,-95.81029183618483z" style="fill:rgb(200,74,217)"/><path d="M-44.4971529673606,6.831553821449872L-39.597578217902615,-56.270730602207905L-73.01715395926585,-43.99870944237014z" style="fill:rgb(143,42,220)"/><path d="M-12.510519709029953,-4.614228282821583L-8.092702575655315,-74.0692161304916L-39.597578217902615,-56.270730602207905z" style="fill:rgb(173,56,222)"/></svg>
