<?xml version="1.0" encoding="UTF-8"?>
<!-- Generated by jsxcad -->
<!DOCTYPE svg PUBLIC "-//W3C//DTD SVG 1.1 Tiny//EN" "http://www.w3.org/Graphics/SVG/1.1/DTD/svg11-tiny.dtd">
<svg viewBox="-250 -250 500 500" width="500" height="500" xmlns="http://www.w3.org/2000/svg"><path d="M11.252138882962429,141.84621254959507L-103.38345385054306,-52.25123737983733L0.6380422178723543,125.681170650043z" style="fill:rgb(19,60,138)"/><path d="M22.380878113640392,-107.22688267056245L108.57045986688831,101.2564346693455L106.6716252921529,81.2769951493062z" style="fill:rgb(247,158,158)"/><path d="M30.841976095826432,150.7639712749279L-92.97187030763423,-36.827956467620574L11.252138882962429,141.84621254959507z" style="fill:rgb(52,37,178)"/><path d="M108.57045986688831,101.2564346693455L10.193358591947444,-64.96726493434389L99.21261467696857,122.34353868184436z" style="fill:rgb(235,116,194)"/><path d="M-42.830453835982155,-32.42072403163435L30.841976095826432,150.7639712749279L55.60039174008299,150.1886792223025z" style="fill:rgb(100,32,208)"/><path d="M99.21261467696857,122.34353868184436L-13.406612977609015,-45.17048963929028L80.20923972576722,139.97878589239852z" style="fill:rgb(202,76,217)"/><path d="M-13.406612977609015,-45.17048963929028L55.60039174008299,150.1886792223025L80.20923972576722,139.97878589239852z" style="fill:rgb(154,46,222)"/><path d="M-103.38345385054306,-52.25123737983733L11.252138882962429,141.84621254959507L-92.97187030763423,-36.827956467620574z" style="fill:rgb(19,60,138)"/><path d="M108.57045986688831,101.2564346693455L22.380878113640392,-107.22688267056245L22.85915325064279,-87.26984123510674z" style="fill:rgb(247,158,158)"/><path d="M-92.97187030763423,-36.827956467620574L30.841976095826432,150.7639712749279L-71.41983489790654,-29.53899189138142z" style="fill:rgb(52,37,178)"/><path d="M10.193358591947444,-64.96726493434389L108.57045986688831,101.2564346693455L22.85915325064279,-87.26984123510674z" style="fill:rgb(235,116,194)"/><path d="M-65.68249411321499,-110.80165221700675L-71.41983489790654,-29.53899189138142L-39.00316740010412,-122.5567837757075z" style="fill:rgb(83,212,212)"/><path d="M30.841976095826432,150.7639712749279L-42.830453835982155,-32.42072403163435L-71.41983489790654,-29.53899189138142z" style="fill:rgb(100,32,208)"/><path d="M-87.76660889569592,-93.0555631936316L-71.41983489790654,-29.53899189138142L-65.68249411321499,-110.80165221700675zM-101.28613598240068,-72.31213451210442L-92.97187030763423,-36.827956467620574L-87.76660889569592,-93.0555631936316z" style="fill:rgb(83,212,212)"/><path d="M-13.406612977609015,-45.17048963929028L99.21261467696857,122.34353868184436L10.193358591947444,-64.96726493434389z" style="fill:rgb(202,76,217)"/><path d="M-39.00316740010412,-122.5567837757075L-42.830453835982155,-32.42072403163435L-12.31518678342364,-126.25000873645686z" style="fill:rgb(83,212,212)"/><path d="M55.60039174008299,150.1886792223025L-13.406612977609015,-45.17048963929028L-42.830453835982155,-32.42072403163435z" style="fill:rgb(154,46,222)"/><path d="M-92.97187030763423,-36.827956467620574L-101.28613598240068,-72.31213451210442L-103.38345385054306,-52.25123737983733zM-12.31518678342364,-126.25000873645686L10.193358591947444,-64.96726493434389L9.608620221202514,-120.96372813685815zM-87.76660889569592,-93.0555631936316L-92.97187030763423,-36.827956467620574L-71.41983489790654,-29.53899189138142zM-149.46470034922447,-145.20522383908673L-155.74951817406136,-51.63757271092461L-128.29758809425516,-164.56369596515802zM-165.36524393327633,-124.26504704150608L-170.32276459263196,-65.13616806862254L-149.46470034922447,-145.20522383908673zM9.608620221202514,-120.96372813685815L10.193358591947444,-64.96726493434389L22.380878113640392,-107.22688267056245zM-128.29758809425516,-164.56369596515802L-133.52028386277632,-43.674850289250934L-103.24645577473781,-181.26861503798864zM-176.62395657079517,-82.7668298527532L-165.36524393327633,-124.26504704150608L-174.75617625465384,-102.98431667506976zM-39.00316740010412,-122.5567837757075L-71.41983489790654,-29.53899189138142L-42.830453835982155,-32.42072403163435zM-103.24645577473781,-181.26861503798864L-105.08775545640799,-42.294122081391535L-75.78737922866068,-194.40788895740698zM-12.31518678342364,-126.25000873645686L-13.406612977609015,-45.17048963929028L10.193358591947444,-64.96726493434389zM-12.31518678342364,-126.25000873645686L-42.830453835982155,-32.42072403163435L-13.406612977609015,-45.17048963929028zM-75.78737922866068,-194.40788895740698L-72.72728139577927,-47.957192235426405L-47.47492101778481,-203.22056205789298zM22.380878113640392,-107.22688267056245L10.193358591947444,-64.96726493434389L22.85915325064279,-87.26984123510674zM-165.36524393327633,-124.26504704150608L-176.62395657079517,-82.7668298527532L-170.32276459263196,-65.13616806862254zM-47.47492101778481,-203.22056205789298L-39.3393484943724,-60.373948469636L-19.94110901236523,-207.1016243740245z" style="fill:rgb(83,212,212)"/><path d="M-124.97555016150974,-3.0094849447197527L-170.32276459263196,-65.13616806862254L-139.59460572531162,-16.995009545578025z" style="fill:rgb(29,50,154)"/><path d="M-149.46470034922447,-145.20522383908673L-170.32276459263196,-65.13616806862254L-155.74951817406136,-51.63757271092461zM-19.94110901236523,-207.1016243740245L-8.074917733957268,-78.46536084733386L5.110774278134171,-205.6293946638691zM5.110774278134171,-205.6293946638691L18.134005925125326,-100.49311660651553L25.9386240017326,-198.6197417162619zM-128.29758809425516,-164.56369596515802L-155.74951817406136,-51.63757271092461L-133.52028386277632,-43.674850289250934z" style="fill:rgb(83,212,212)"/><path d="M69.71666566674553,-115.77039520418258L47.18511970595907,-147.78932086566914L69.12131408952608,-94.42313113788086z" style="fill:rgb(247,152,164)"/><path d="M-103.12841538352983,5.582373829628084L-155.74951817406136,-51.63757271092461L-124.97555016150974,-3.0094849447197527z" style="fill:rgb(51,38,177)"/><path d="M-170.32276459263196,-65.13616806862254L-124.97555016150974,-3.0094849447197527L-155.74951817406136,-51.63757271092461z" style="fill:rgb(29,50,154)"/><path d="M25.9386240017326,-198.6197417162619L37.00630590423241,-124.32983031724306L40.84094936675662,-186.204463415041z" style="fill:rgb(83,212,212)"/><path d="M47.18511970595907,-147.78932086566914L69.71666566674553,-115.77039520418258L48.29928658131428,-168.92135357699885z" style="fill:rgb(247,152,164)"/><path d="M-103.24645577473781,-181.26861503798864L-133.52028386277632,-43.674850289250934L-105.08775545640799,-42.294122081391535zM40.84094936675662,-186.204463415041L47.18511970595907,-147.78932086566914L48.29928658131428,-168.92135357699885z" style="fill:rgb(83,212,212)"/><path d="M69.12131408952608,-94.42313113788086L37.00630590423241,-124.32983031724306L59.82354748418614,-71.02500904356894z" style="fill:rgb(240,126,186)"/><path d="M-75.78737922866068,-194.40788895740698L-105.08775545640799,-42.294122081391535L-72.72728139577927,-47.957192235426405z" style="fill:rgb(83,212,212)"/><path d="M-155.74951817406136,-51.63757271092461L-103.12841538352983,5.582373829628084L-133.52028386277632,-43.674850289250934z" style="fill:rgb(51,38,177)"/><path d="M40.84094936675662,-186.204463415041L37.00630590423241,-124.32983031724306L47.18511970595907,-147.78932086566914zM-47.47492101778481,-203.22056205789298L-72.72728139577927,-47.957192235426405L-39.3393484943724,-60.373948469636z" style="fill:rgb(83,212,212)"/><path d="M37.00630590423241,-124.32983031724306L69.12131408952608,-94.42313113788086L47.18511970595907,-147.78932086566914z" style="fill:rgb(240,126,186)"/><path d="M-105.08775545640799,-42.294122081391535L-103.12841538352983,5.582373829628084L-75.50778120744222,7.709579559881361z" style="fill:rgb(79,32,197)"/><path d="M25.9386240017326,-198.6197417162619L18.134005925125326,-100.49311660651553L37.00630590423241,-124.32983031724306zM-19.94110901236523,-207.1016243740245L-39.3393484943724,-60.373948469636L-8.074917733957268,-78.46536084733386zM5.110774278134171,-205.6293946638691L-8.074917733957268,-78.46536084733386L18.134005925125326,-100.49311660651553z" style="fill:rgb(83,212,212)"/><path d="M59.82354748418614,-71.02500904356894L18.134005925125326,-100.49311660651553L42.154917638491234,-47.526661799880586z" style="fill:rgb(225,100,204)"/><path d="M-103.12841538352983,5.582373829628084L-105.08775545640799,-42.294122081391535L-133.52028386277632,-43.674850289250934z" style="fill:rgb(79,32,197)"/><path d="M-72.72728139577927,-47.957192235426405L-75.50778120744222,7.709579559881361L-44.32874302747314,2.8653439944929353z" style="fill:rgb(111,33,212)"/><path d="M42.154917638491234,-47.526661799880586L-8.074917733957268,-78.46536084733386L17.377771552041615,-26.075484210079516z" style="fill:rgb(203,77,216)"/><path d="M18.134005925125326,-100.49311660651553L59.82354748418614,-71.02500904356894L37.00630590423241,-124.32983031724306z" style="fill:rgb(225,100,204)"/><path d="M-39.3393484943724,-60.373948469636L-44.32874302747314,2.8653439944929353L-12.370674161962713,-8.727810058540333z" style="fill:rgb(143,42,221)"/><path d="M-8.074917733957268,-78.46536084733386L-12.370674161962713,-8.727810058540333L17.377771552041615,-26.075484210079516z" style="fill:rgb(175,57,222)"/><path d="M-75.50778120744222,7.709579559881361L-72.72728139577927,-47.957192235426405L-105.08775545640799,-42.294122081391535z" style="fill:rgb(111,33,212)"/><path d="M-8.074917733957268,-78.46536084733386L42.154917638491234,-47.526661799880586L18.134005925125326,-100.49311660651553z" style="fill:rgb(203,77,216)"/><path d="M-44.32874302747314,2.8653439944929353L-39.3393484943724,-60.373948469636L-72.72728139577927,-47.957192235426405z" style="fill:rgb(143,42,221)"/><path d="M-12.370674161962713,-8.727810058540333L-8.074917733957268,-78.46536084733386L-39.3393484943724,-60.373948469636z" style="fill:rgb(175,57,222)"/></svg>
