<?xml version="1.0" encoding="UTF-8"?>
<!-- Generated by jsxcad -->
<!DOCTYPE svg PUBLIC "-//W3C//DTD SVG 1.1 Tiny//EN" "http://www.w3.org/Graphics/SVG/1.1/DTD/svg11-tiny.dtd">
<svg viewBox="-250 -250 500 500" width="500" height="500" xmlns="http://www.w3.org/2000/svg"><path d="M18.714158736653296,131.52377401188343L-72.07140001637192,-26.124993085031672L14.71334455615434,126.23841668380462z" style="fill:rgb(21,57,142)"/><path d="M21.377007202298536,-71.66633423013693L96.39171807200835,94.10553436043499L94.99034655390163,87.55185323187929z" style="fill:rgb(246,167,149)"/><path d="M24.11765044492737,135.7982260099338L-68.03318961546653,-21.06552846573945L18.714158736653296,131.52377401188343z" style="fill:rgb(34,46,160)"/><path d="M96.39171807200835,94.10553436043499L21.677517344115458,-58.038155895736736L96.13239951093365,101.12164535935021z" style="fill:rgb(246,149,167)"/><path d="M30.73224079702161,138.8725610758245L-62.322423666231956,-17.133711956785135L24.11765044492737,135.7982260099338z" style="fill:rgb(51,38,177)"/><path d="M96.13239951093365,101.12164535935021L18.95542717228805,-50.57774138874971L94.19411926728954,108.32543168743777z" style="fill:rgb(242,130,183)"/><path d="M-46.73740366639126,-13.33182730463466L30.73224079702161,138.8725610758245L38.308365637221364,140.6021991561373z" style="fill:rgb(71,33,192)"/><path d="M94.19411926728954,108.32543168743777L14.394169970837455,-43.08088152201008L90.63015851894482,115.4251456910269z" style="fill:rgb(233,112,197)"/><path d="M-37.46098458510451,-13.667218403977119L38.308365637221364,140.6021991561373L46.547011148628286,140.8969869294461z" style="fill:rgb(92,32,204)"/><path d="M90.63015851894482,115.4251456910269L8.156828623820207,-35.86133493694623L85.56686558526857,122.12540649468176z" style="fill:rgb(220,94,208)"/><path d="M-27.685783315477153,-15.523531713535572L46.547011148628286,140.8969869294461L55.11220048275357,139.7285644693598z" style="fill:rgb(115,34,214)"/><path d="M85.56686558526857,122.12540649468176L0.48796100234896406,-29.228425847479247L79.20079364525354,128.14206498412392z" style="fill:rgb(203,77,216)"/><path d="M0.48796100234896406,-29.228425847479247L71.79099639614645,133.21737039908612L79.20079364525354,128.14206498412392z" style="fill:rgb(183,62,221)"/><path d="M-17.823638833403688,-18.835881066544445L55.11220048275357,139.7285644693598L63.64685612753228,137.1343183498826z" style="fill:rgb(139,40,220)"/><path d="M-8.296277394363479,-23.46999566268266L63.64685612753228,137.1343183498826L71.79099639614645,133.21737039908612z" style="fill:rgb(162,50,222)"/><path d="M-72.07140001637192,-26.124993085031672L18.714158736653296,131.52377401188343L-68.03318961546653,-21.06552846573945z" style="fill:rgb(21,57,142)"/><path d="M96.39171807200835,94.10553436043499L21.377007202298536,-71.66633423013693L22.482722320126303,-65.1599619378491z" style="fill:rgb(246,167,149)"/><path d="M-68.03318961546653,-21.06552846573945L24.11765044492737,135.7982260099338L-62.322423666231956,-17.133711956785135z" style="fill:rgb(34,46,160)"/><path d="M21.677517344115458,-58.038155895736736L96.39171807200835,94.10553436043499L22.482722320126303,-65.1599619378491z" style="fill:rgb(246,149,167)"/><path d="M-62.322423666231956,-17.133711956785135L30.73224079702161,138.8725610758245L-55.13473768238069,-14.51161696980983z" style="fill:rgb(51,38,177)"/><path d="M18.95542717228805,-50.57774138874971L96.13239951093365,101.12164535935021L21.677517344115458,-58.038155895736736z" style="fill:rgb(242,130,183)"/><path d="M30.73224079702161,138.8725610758245L-46.73740366639126,-13.33182730463466L-55.13473768238069,-14.51161696980983z" style="fill:rgb(71,33,192)"/><path d="M14.394169970837455,-43.08088152201008L94.19411926728954,108.32543168743777L18.95542717228805,-50.57774138874971z" style="fill:rgb(233,112,197)"/><path d="M38.308365637221364,140.6021991561373L-37.46098458510451,-13.667218403977119L-46.73740366639126,-13.33182730463466z" style="fill:rgb(92,32,204)"/><path d="M8.156828623820207,-35.86133493694623L90.63015851894482,115.4251456910269L14.394169970837455,-43.08088152201008z" style="fill:rgb(220,94,208)"/><path d="M46.547011148628286,140.8969869294461L-27.685783315477153,-15.523531713535572L-37.46098458510451,-13.667218403977119z" style="fill:rgb(115,34,214)"/><path d="M0.48796100234896406,-29.228425847479247L85.56686558526857,122.12540649468176L8.156828623820207,-35.86133493694623z" style="fill:rgb(203,77,216)"/><path d="M-65.43777517560544,-59.979704777341574L-62.322423666231956,-17.133711956785135L-59.30765617555203,-66.66757853017313zM-59.30765617555203,-66.66757853017313L-55.13473768238069,-14.51161696980983L-52.006355224049926,-72.76188645963839zM-70.16830091716153,-52.92660647915481L-68.03318961546653,-21.06552846573945L-65.43777517560544,-59.979704777341574zM-52.006355224049926,-72.76188645963839L-46.73740366639126,-13.33182730463466L-43.794100238505585,-78.05691891851215z" style="fill:rgb(83,212,212)"/><path d="M55.11220048275357,139.7285644693598L-17.823638833403688,-18.835881066544445L-27.685783315477153,-15.523531713535572z" style="fill:rgb(139,40,220)"/><path d="M-73.31016880922024,-45.75456308200134L-72.07140001637192,-26.124993085031672L-70.16830091716153,-52.92660647915481zM-43.794100238505585,-78.05691891851215L-37.46098458510451,-13.667218403977119L-34.95593993838041,-82.37354975232644z" style="fill:rgb(83,212,212)"/><path d="M71.79099639614645,133.21737039908612L0.48796100234896406,-29.228425847479247L-8.296277394363479,-23.46999566268266z" style="fill:rgb(183,62,221)"/><path d="M63.64685612753228,137.1343183498826L-8.296277394363479,-23.46999566268266L-17.823638833403688,-18.835881066544445z" style="fill:rgb(162,50,222)"/><path d="M-74.31641870543272,-32.09229682911191L-73.31016880922024,-45.75456308200134L-74.72164074809793,-38.72200535856zM-34.95593993838041,-82.37354975232644L-27.685783315477153,-15.523531713535572L-25.795082081001965,-85.56273718405562zM-25.795082081001965,-85.56273718405562L-17.823638833403688,-18.835881066544445L-16.62631257226799,-87.50893263809192zM-73.31016880922024,-45.75456308200134L-74.31641870543272,-32.09229682911191L-72.07140001637192,-26.124993085031672zM-16.62631257226799,-87.50893263809192L-8.296277394363479,-23.46999566268266L-7.769114300622643,-88.13342946888537zM-70.16830091716153,-52.92660647915481L-72.07140001637192,-26.124993085031672L-68.03318961546653,-21.06552846573945zM-7.769114300622643,-88.13342946888537L0.48796100234896406,-29.228425847479247L0.459910098153764,-87.39778948882694zM0.459910098153764,-87.39778948882694L8.156828623820207,-35.86133493694623L7.7556158129389114,-85.30718559930253zM-65.43777517560544,-59.979704777341574L-68.03318961546653,-21.06552846573945L-62.322423666231956,-17.133711956785135zM7.7556158129389114,-85.30718559930253L14.394169970837455,-43.08088152201008L13.834108951519893,-81.91333646907052zM-59.30765617555203,-66.66757853017313L-62.322423666231956,-17.133711956785135L-55.13473768238069,-14.51161696980983zM13.834108951519893,-81.91333646907052L18.95542717228805,-50.57774138874971L18.44374071460842,-77.31654107280607zM-52.006355224049926,-72.76188645963839L-55.13473768238069,-14.51161696980983L-46.73740366639126,-13.33182730463466zM18.44374071460842,-77.31654107280607L21.677517344115458,-58.038155895736736L21.377007202298536,-71.66633423013693zM-43.794100238505585,-78.05691891851215L-46.73740366639126,-13.33182730463466L-37.46098458510451,-13.667218403977119zM-34.95593993838041,-82.37354975232644L-37.46098458510451,-13.667218403977119L-27.685783315477153,-15.523531713535572zM21.377007202298536,-71.66633423013693L21.677517344115458,-58.038155895736736L22.482722320126303,-65.1599619378491zM-25.795082081001965,-85.56273718405562L-27.685783315477153,-15.523531713535572L-17.823638833403688,-18.835881066544445zM18.44374071460842,-77.31654107280607L18.95542717228805,-50.57774138874971L21.677517344115458,-58.038155895736736zM-16.62631257226799,-87.50893263809192L-17.823638833403688,-18.835881066544445L-8.296277394363479,-23.46999566268266zM13.834108951519893,-81.91333646907052L14.394169970837455,-43.08088152201008L18.95542717228805,-50.57774138874971zM-7.769114300622643,-88.13342946888537L-8.296277394363479,-23.46999566268266L0.48796100234896406,-29.228425847479247zM7.7556158129389114,-85.30718559930253L8.156828623820207,-35.86133493694623L14.394169970837455,-43.08088152201008zM0.459910098153764,-87.39778948882694L0.48796100234896406,-29.228425847479247L8.156828623820207,-35.86133493694623z" style="fill:rgb(83,212,212)"/><path d="M-99.55683184289585,2.36439524994574L-152.1412408315343,-81.72896859293722L-106.23579459866521,-6.803048921518122z" style="fill:rgb(21,57,142)"/><path d="M23.402871413113452,-167.74441871211437L60.1723693132387,-75.41090951763337L57.7557674973423,-86.71077915463357z" style="fill:rgb(246,167,149)"/><path d="M-135.45500130970052,-140.46460142107253L-135.77738618002223,-66.13976824569458L-123.8052503890992,-152.10810604276924zM-144.7659896907895,-128.2365782962466L-145.61179354147527,-72.93120558291686L-135.45500130970052,-140.46460142107253zM-123.8052503890992,-152.10810604276924L-122.92053295807767,-61.720354727738595L-110.23320737571936,-162.80940784836625zM-151.36513799278308,-115.81606356307503L-152.1412408315343,-81.72896859293722L-144.7659896907895,-128.2365782962466zM-110.23320737571936,-162.80940784836625L-107.490663977587,-59.95193936814086L-95.18828993880571,-172.24686259316834z" style="fill:rgb(83,212,212)"/><path d="M-89.8257391904788,9.622122848015525L-145.61179354147527,-72.93120558291686L-99.55683184289585,2.36439524994574z" style="fill:rgb(34,46,160)"/><path d="M-95.18828993880571,-172.24686259316834L-90.09751319341217,-60.997659119951386L-79.14574002344277,-180.1357020786553zM-155.2429569354556,-92.11081427741892L-151.36513799278308,-115.81606356307503L-154.93717664711608,-103.62555100812561zM-79.14574002344277,-180.1357020786553L-71.48796697856828,-64.88121838990567L-62.60187589068082,-186.22915657969003zM-62.60187589068082,-186.22915657969003L-52.50596685659261,-71.47331431357945L-46.0704129926283,-190.32061111513048z" style="fill:rgb(83,212,212)"/><path d="M60.1723693132387,-75.41090951763337L24.030050806497112,-144.33869695782562L59.19727164969007,-62.89012616753593z" style="fill:rgb(246,149,167)"/><path d="M-151.36513799278308,-115.81606356307503L-155.2429569354556,-92.11081427741892L-152.1412408315343,-81.72896859293722z" style="fill:rgb(83,212,212)"/><path d="M-77.3366747289228,14.595752802429507L-135.77738618002223,-66.13976824569458L-89.8257391904788,9.622122848015525z" style="fill:rgb(51,38,177)"/><path d="M-46.0704129926283,-190.32061111513048L-34.03847706489954,-80.49177810190655L-30.07855789865472,-192.24757217117954z" style="fill:rgb(83,212,212)"/><path d="M-152.1412408315343,-81.72896859293722L-99.55683184289585,2.36439524994574L-145.61179354147527,-72.93120558291686z" style="fill:rgb(21,57,142)"/><path d="M-144.7659896907895,-128.2365782962466L-152.1412408315343,-81.72896859293722L-145.61179354147527,-72.93120558291686zM-30.07855789865472,-192.24757217117954L-16.953562679797383,-91.51677928646592L-15.161424708116447,-191.89769066281954z" style="fill:rgb(83,212,212)"/><path d="M60.1723693132387,-75.41090951763337L23.402871413113452,-167.74441871211437L25.52567863180769,-156.72991279525652z" style="fill:rgb(246,167,149)"/><path d="M59.19727164969007,-62.89012616753593L18.839360206402006,-131.04553619098164L54.74930504071471,-49.634391706744516z" style="fill:rgb(242,130,183)"/><path d="M-15.161424708116447,-191.89769066281954L-2.038595790797756,-104.02000264249364L-1.8532548143627368,-189.21708652840772zM-135.45500130970052,-140.46460142107253L-145.61179354147527,-72.93120558291686L-135.77738618002223,-66.13976824569458z" style="fill:rgb(83,212,212)"/><path d="M-107.490663977587,-59.95193936814086L-77.3366747289228,14.595752802429507L-62.53527820787089,16.992988476908284z" style="fill:rgb(71,33,192)"/><path d="M-145.61179354147527,-72.93120558291686L-89.8257391904788,9.622122848015525L-135.77738618002223,-66.13976824569458z" style="fill:rgb(34,46,160)"/><path d="M-1.8532548143627368,-189.21708652840772L10.052926528330124,-117.40391919451449L9.325751318938424,-184.2203861918046z" style="fill:rgb(83,212,212)"/><path d="M24.030050806497112,-144.33869695782562L60.1723693132387,-75.41090951763337L25.52567863180769,-156.72991279525652z" style="fill:rgb(246,149,167)"/><path d="M-123.8052503890992,-152.10810604276924L-135.77738618002223,-66.13976824569458L-122.92053295807767,-61.720354727738595z" style="fill:rgb(83,212,212)"/><path d="M54.74930504071471,-49.634391706744516L10.052926528330124,-117.40391919451449L46.90962734979665,-36.198013692215575z" style="fill:rgb(233,112,197)"/><path d="M9.325751318938424,-184.2203861918046L18.839360206402006,-131.04553619098164L17.888025289158968,-177.00158057149616z" style="fill:rgb(83,212,212)"/><path d="M-90.09751319341217,-60.997659119951386L-62.53527820787089,16.992988476908284L-46.00991706358168,16.631698612942017z" style="fill:rgb(92,32,204)"/><path d="M-110.23320737571936,-162.80940784836625L-122.92053295807767,-61.720354727738595L-107.490663977587,-59.95193936814086zM17.888025289158968,-177.00158057149616L24.030050806497112,-144.33869695782562L23.402871413113452,-167.74441871211437z" style="fill:rgb(83,212,212)"/><path d="M46.90962734979665,-36.198013692215575L-2.038595790797756,-104.02000264249364L35.935490371014644,-23.17679233482158z" style="fill:rgb(220,94,208)"/><path d="M-135.77738618002223,-66.13976824569458L-77.3366747289228,14.595752802429507L-122.92053295807767,-61.720354727738595z" style="fill:rgb(51,38,177)"/><path d="M18.839360206402006,-131.04553619098164L59.19727164969007,-62.89012616753593L24.030050806497112,-144.33869695782562z" style="fill:rgb(242,130,183)"/><path d="M-95.18828993880571,-172.24686259316834L-107.490663977587,-59.95193936814086L-90.09751319341217,-60.997659119951386z" style="fill:rgb(83,212,212)"/><path d="M-71.48796697856828,-64.88121838990567L-46.00991706358168,16.631698612942017L-28.468272553844137,13.46302981800754z" style="fill:rgb(115,34,214)"/><path d="M35.935490371014644,-23.17679233482158L-16.953562679797383,-91.51677928646592L22.260066376867528,-11.172851090729115z" style="fill:rgb(203,77,216)"/><path d="M-16.953562679797383,-91.51677928646592L6.4757037640113735,-0.7543190234823665L22.260066376867528,-11.172851090729115z" style="fill:rgb(183,62,221)"/><path d="M-52.50596685659261,-71.47331431357945L-28.468272553844137,13.46302981800754L-10.699418875029231,7.585346685851412z" style="fill:rgb(139,40,220)"/><path d="M23.402871413113452,-167.74441871211437L24.030050806497112,-144.33869695782562L25.52567863180769,-156.72991279525652zM-79.14574002344277,-180.1357020786553L-90.09751319341217,-60.997659119951386L-71.48796697856828,-64.88121838990567z" style="fill:rgb(83,212,212)"/><path d="M-77.3366747289228,14.595752802429507L-107.490663977587,-59.95193936814086L-122.92053295807767,-61.720354727738595z" style="fill:rgb(71,33,192)"/><path d="M-34.03847706489954,-80.49177810190655L-10.699418875029231,7.585346685851412L6.4757037640113735,-0.7543190234823665z" style="fill:rgb(162,50,222)"/><path d="M17.888025289158968,-177.00158057149616L18.839360206402006,-131.04553619098164L24.030050806497112,-144.33869695782562z" style="fill:rgb(83,212,212)"/><path d="M10.052926528330124,-117.40391919451449L54.74930504071471,-49.634391706744516L18.839360206402006,-131.04553619098164z" style="fill:rgb(233,112,197)"/><path d="M-62.60187589068082,-186.22915657969003L-71.48796697856828,-64.88121838990567L-52.50596685659261,-71.47331431357945zM9.325751318938424,-184.2203861918046L10.052926528330124,-117.40391919451449L18.839360206402006,-131.04553619098164zM-46.0704129926283,-190.32061111513048L-52.50596685659261,-71.47331431357945L-34.03847706489954,-80.49177810190655zM-1.8532548143627368,-189.21708652840772L-2.038595790797756,-104.02000264249364L10.052926528330124,-117.40391919451449zM-30.07855789865472,-192.24757217117954L-34.03847706489954,-80.49177810190655L-16.953562679797383,-91.51677928646592zM-15.161424708116447,-191.89769066281954L-16.953562679797383,-91.51677928646592L-2.038595790797756,-104.02000264249364z" style="fill:rgb(83,212,212)"/><path d="M-62.53527820787089,16.992988476908284L-90.09751319341217,-60.997659119951386L-107.490663977587,-59.95193936814086z" style="fill:rgb(92,32,204)"/><path d="M-2.038595790797756,-104.02000264249364L46.90962734979665,-36.198013692215575L10.052926528330124,-117.40391919451449z" style="fill:rgb(220,94,208)"/><path d="M-46.00991706358168,16.631698612942017L-71.48796697856828,-64.88121838990567L-90.09751319341217,-60.997659119951386z" style="fill:rgb(115,34,214)"/><path d="M-16.953562679797383,-91.51677928646592L35.935490371014644,-23.17679233482158L-2.038595790797756,-104.02000264249364z" style="fill:rgb(203,77,216)"/><path d="M-28.468272553844137,13.46302981800754L-52.50596685659261,-71.47331431357945L-71.48796697856828,-64.88121838990567z" style="fill:rgb(139,40,220)"/><path d="M6.4757037640113735,-0.7543190234823665L-16.953562679797383,-91.51677928646592L-34.03847706489954,-80.49177810190655z" style="fill:rgb(183,62,221)"/><path d="M-10.699418875029231,7.585346685851412L-34.03847706489954,-80.49177810190655L-52.50596685659261,-71.47331431357945z" style="fill:rgb(162,50,222)"/></svg>
